<svg width="112" height="20" viewBox="0 0 112 20" fill="none" xmlns="http://www.w3.org/2000/svg">
<path d="M5.77621 18.8162C4.5998 18.8162 3.59592 18.6554 2.76458 18.3338C1.94109 18.0044 1.29406 17.5535 0.823493 16.981C0.360768 16.4084 0.0901921 15.7536 0.0117642 15.0163L0 14.9693H3.37632L3.39985 15.0163C3.54102 15.4163 3.80767 15.7457 4.19981 16.0045C4.5998 16.2633 5.13703 16.3928 5.81151 16.3928C6.2507 16.3928 6.635 16.3339 6.9644 16.2163C7.29379 16.0908 7.55261 15.9222 7.74083 15.7104C7.92906 15.4987 8.02317 15.2516 8.02317 14.9693V14.9458C8.02317 14.6007 7.882 14.3144 7.59966 14.087C7.31732 13.8595 6.84676 13.6713 6.18796 13.5223L4.02335 13.0635C3.19986 12.8909 2.51361 12.64 1.96462 12.3106C1.41562 11.9733 1.00388 11.5616 0.729379 11.0753C0.462725 10.5891 0.329397 10.0244 0.329397 9.3813V9.36954C0.329397 8.55389 0.552917 7.84412 0.999956 7.24022C1.45484 6.62848 2.08618 6.15399 2.89399 5.81675C3.70964 5.47951 4.6547 5.31089 5.72916 5.31089C6.85852 5.31089 7.81926 5.48344 8.61138 5.82852C9.4035 6.16576 10.0113 6.62064 10.4348 7.19316C10.8662 7.75784 11.1054 8.38919 11.1524 9.0872V9.13425H7.96435L7.95259 9.07543C7.85847 8.72251 7.62319 8.41272 7.24674 8.14606C6.87028 7.87156 6.3605 7.73432 5.71739 7.73432C5.32525 7.73432 4.97625 7.79314 4.67038 7.91078C4.36451 8.02842 4.12139 8.19312 3.941 8.40487C3.76846 8.61663 3.68219 8.8676 3.68219 9.15778V9.16955C3.68219 9.39699 3.74101 9.59698 3.85865 9.76952C3.97629 9.94206 4.16844 10.0911 4.4351 10.2166C4.70175 10.342 5.0586 10.4558 5.50564 10.5577L7.65848 11.0165C8.95254 11.2989 9.90936 11.7224 10.5289 12.2871C11.1485 12.8517 11.4583 13.6125 11.4583 14.5693V14.5811C11.4583 15.4359 11.2152 16.181 10.7289 16.8163C10.2427 17.4515 9.57212 17.9456 8.71726 18.2986C7.8624 18.6436 6.88205 18.8162 5.77621 18.8162Z" fill="#24292E"/>
<path d="M17.4072 18.5927C15.8387 18.5927 14.7093 18.3182 14.0191 17.7692C13.329 17.2123 12.9839 16.3065 12.9839 15.0516V8.18136H10.984V5.59324H12.9839V2.49926H16.4543V5.59324H19.1248V8.18136H16.4543V14.2634C16.4543 14.8438 16.5837 15.2712 16.8425 15.5457C17.1092 15.8124 17.5327 15.9457 18.1131 15.9457C18.3327 15.9457 18.5131 15.9418 18.6542 15.934C18.8032 15.9183 18.9601 15.9026 19.1248 15.8869V18.4397C18.913 18.4789 18.6582 18.5142 18.3601 18.5456C18.0621 18.577 17.7445 18.5927 17.4072 18.5927Z" fill="#24292E"/>
<path d="M23.3444 18.7456C22.5287 18.7456 21.7993 18.5887 21.1562 18.275C20.521 17.9535 20.023 17.5025 19.6622 16.9221C19.3014 16.3339 19.121 15.6477 19.121 14.8634V14.8399C19.121 14.0634 19.3132 13.3968 19.6975 12.84C20.0896 12.2831 20.6582 11.8479 21.4033 11.5341C22.1562 11.2126 23.0699 11.0204 24.1443 10.9577L28.9677 10.6636V12.7576L24.662 13.04C23.9247 13.0792 23.3757 13.236 23.015 13.5105C22.6542 13.785 22.4738 14.1576 22.4738 14.6281V14.6517C22.4738 15.1458 22.6621 15.534 23.0385 15.8163C23.415 16.0987 23.9012 16.2398 24.4973 16.2398C25.0306 16.2398 25.5051 16.1339 25.9207 15.9222C26.3364 15.7104 26.6658 15.4242 26.9089 15.0634C27.1521 14.6948 27.2736 14.283 27.2736 13.8282V9.69894C27.2736 9.13425 27.0854 8.7029 26.7089 8.40487C26.3403 8.09901 25.8031 7.94607 25.0972 7.94607C24.4777 7.94607 23.9718 8.05195 23.5797 8.2637C23.1954 8.46762 22.9366 8.76172 22.8032 9.14602L22.7797 9.19308H19.6034L19.6151 9.0872C19.7092 8.32645 19.9955 7.66373 20.4739 7.09905C20.9602 6.53437 21.6111 6.09517 22.4268 5.78146C23.2503 5.46775 24.2032 5.31089 25.2855 5.31089C26.4305 5.31089 27.403 5.48736 28.203 5.84028C29.003 6.18537 29.6108 6.6873 30.0264 7.3461C30.4499 7.99705 30.6617 8.78133 30.6617 9.69894V18.5456H27.2736V16.828H27.0619C26.8423 17.228 26.5482 17.5731 26.1795 17.8633C25.8188 18.1456 25.3953 18.3652 24.909 18.5221C24.4306 18.6711 23.9091 18.7456 23.3444 18.7456Z" fill="#24292E"/>
<path d="M39.5046 18.7456C38.8929 18.7456 38.336 18.6593 37.8341 18.4868C37.3321 18.3064 36.893 18.0515 36.5165 17.7221C36.1479 17.3927 35.8499 16.9967 35.6224 16.5339H35.4107V18.5456H31.9755V0.640514H35.4107V7.66373H35.6224C35.842 7.18532 36.14 6.7775 36.5165 6.44026C36.9008 6.10302 37.3439 5.8442 37.8458 5.66382C38.3556 5.47559 38.9086 5.38148 39.5046 5.38148C40.5947 5.38148 41.532 5.64813 42.3162 6.18144C43.1005 6.71475 43.7044 7.47943 44.1279 8.47546C44.5514 9.47149 44.7632 10.6636 44.7632 12.0518V12.0753C44.7632 13.4556 44.5475 14.6438 44.1162 15.6398C43.6926 16.6359 43.0888 17.4045 42.3045 17.9456C41.5202 18.4789 40.5869 18.7456 39.5046 18.7456ZM38.3282 15.8987C38.9399 15.8987 39.4615 15.7457 39.8928 15.4399C40.332 15.134 40.6693 14.6948 40.9045 14.1223C41.1477 13.5497 41.2692 12.8674 41.2692 12.0753V12.0518C41.2692 11.2597 41.1477 10.5812 40.9045 10.0166C40.6693 9.44405 40.332 9.00485 39.8928 8.69898C39.4615 8.38527 38.9399 8.22841 38.3282 8.22841C37.7321 8.22841 37.2106 8.38527 36.7635 8.69898C36.3243 9.00485 35.9832 9.44405 35.7401 10.0166C35.4969 10.5812 35.3754 11.2636 35.3754 12.0635V12.0871C35.3754 12.8713 35.493 13.5497 35.7283 14.1223C35.9714 14.6948 36.3126 15.134 36.7518 15.4399C37.1988 15.7457 37.7243 15.8987 38.3282 15.8987Z" fill="#24292E"/>
<path d="M45.5006 18.5456V0.640514H48.9357V18.5456H45.5006Z" fill="#24292E"/>
<path d="M56.014 18.8162C54.7042 18.8162 53.5749 18.5456 52.6259 18.0044C51.6848 17.4555 50.9593 16.679 50.4495 15.6751C49.9397 14.6713 49.6849 13.4752 49.6849 12.0871V12.0753C49.6849 10.7028 49.9358 9.51071 50.4378 8.49899C50.9475 7.48727 51.6652 6.70299 52.5906 6.14615C53.5239 5.58931 54.618 5.31089 55.8728 5.31089C57.1355 5.31089 58.2257 5.58147 59.1433 6.12262C60.0609 6.66378 60.7667 7.42061 61.2608 8.39311C61.7549 9.36562 62.002 10.5067 62.002 11.8165V12.887H51.4024V10.7342H60.355L58.7433 12.7694V11.393C58.7433 10.6165 58.6217 9.96951 58.3786 9.45189C58.1433 8.93426 57.8139 8.54605 57.3904 8.28723C56.9747 8.02058 56.4885 7.88725 55.9316 7.88725C55.3826 7.88725 54.8925 8.0245 54.4611 8.299C54.0376 8.56565 53.7004 8.96171 53.4494 9.48718C53.2063 10.0048 53.0847 10.6401 53.0847 11.393V12.7812C53.0847 13.5105 53.2063 14.134 53.4494 14.6517C53.6925 15.1693 54.0376 15.5653 54.4846 15.8398C54.9317 16.1143 55.465 16.2516 56.0846 16.2516C56.5865 16.2516 57.0139 16.1771 57.3669 16.0281C57.7198 15.8791 58.0021 15.7065 58.2139 15.5104C58.4335 15.3065 58.5825 15.1222 58.6609 14.9575L58.6962 14.8869H61.8961L61.8725 15.0046C61.7706 15.4124 61.5863 15.8398 61.3196 16.2869C61.053 16.7261 60.6844 17.1378 60.2138 17.5221C59.7511 17.9064 59.1707 18.2201 58.4727 18.4633C57.7825 18.6985 56.963 18.8162 56.014 18.8162Z" fill="#24292E"/>
<path d="M63.6452 18.5456V8.18136H61.5512V6.8873V5.59324H63.6452V4.38152C63.6452 3.51882 63.7981 2.8012 64.104 2.22868C64.4099 1.65616 64.8883 1.22872 65.5392 0.946383C66.198 0.6562 67.049 0.511108 68.092 0.511108C68.445 0.511108 68.7626 0.522873 69.0449 0.546401C69.3351 0.569929 69.6057 0.6013 69.8567 0.640514V2.93453C69.7469 2.911 69.6018 2.89532 69.4214 2.88747C69.2488 2.87179 69.0528 2.86395 68.8332 2.86395C68.1665 2.86395 67.696 3.01688 67.4215 3.32275C67.147 3.62077 67.0097 4.05213 67.0097 4.61681V5.59324H69.7508V8.18136H67.0803V18.5456H63.6452Z" fill="#24292E"/>
<path d="M96.483 18.5456L93.0244 5.59324H96.4948L98.4241 14.9693H98.6359L100.906 5.59324H104.177L106.459 14.9693H106.671L108.6 5.59324H112L108.553 18.5456H104.906L102.589 9.51071H102.377L100.083 18.5456H96.483Z" fill="#24292E"/>
<path d="M74.6268 0.511108H71.037C71.2638 20.5754 89.1345 20.3444 90.0599 18.9312V16.6885C78.75 18.5944 73.7713 6.68665 74.6268 0.511108Z" fill="#1E90FF"/>
<path fill-rule="evenodd" clip-rule="evenodd" d="M90.2831 14.1448C92.7097 11.8771 92.8385 8.07167 90.5708 5.64511C88.3031 3.21855 84.4977 3.08974 82.0712 5.35741C79.6446 7.62508 79.5158 11.4305 81.7835 13.8571C84.0511 16.2836 87.8566 16.4124 90.2831 14.1448ZM89.1344 6.68666C87.3223 7.5757 85.1864 7.5034 83.4385 6.49387C84.3275 8.30599 84.2552 10.4419 83.2457 12.1898C85.0578 11.3008 87.1938 11.3731 88.9416 12.3826C88.0526 10.5705 88.1249 8.43452 89.1344 6.68666Z" fill="#1E90FF"/>
</svg>
