<svg width="144" height="33" viewBox="0 0 144 33" fill="none" xmlns="http://www.w3.org/2000/svg">
<g filter="url(#filter0_d_733_5659)">
<rect x="1" width="142" height="31" rx="15.5" fill="white" shape-rendering="crispEdges"/>
<rect x="1.5" y="0.5" width="141" height="30" rx="15" stroke="url(#paint0_linear_733_5659)" shape-rendering="crispEdges"/>
<path d="M21.955 8.1575L20.1475 12.365H18.34C18.04 12.365 17.7475 12.3875 17.4625 12.4475L18.2125 10.6475L18.2425 10.58L18.2875 10.46C18.31 10.4075 18.325 10.3625 18.3475 10.325C19.2175 8.3075 20.1925 7.6775 21.955 8.1575Z" fill="#AAAAAA"/>
<path d="M27.0475 12.5675L27.0325 12.56C26.5825 12.4325 26.125 12.365 25.66 12.365H20.965L22.6525 8.44251L22.675 8.39001C22.78 8.42751 22.8925 8.48001 23.005 8.51751L24.6625 9.21501C25.585 9.59751 26.23 9.99501 26.6275 10.475C26.695 10.565 26.755 10.6475 26.815 10.745C26.8825 10.85 26.935 10.955 26.965 11.0675C26.995 11.135 27.0175 11.195 27.0325 11.2625C27.145 11.645 27.1525 12.08 27.0475 12.5675Z" fill="#AAAAAA"/>
<path d="M26.7175 13.64C26.38 13.5425 26.0275 13.49 25.66 13.49H18.34C17.83 13.49 17.35 13.5875 16.9 13.7825C15.595 14.345 14.68 15.6425 14.68 17.15V18.6125C14.68 18.7925 14.695 18.965 14.7175 19.145C14.8825 21.53 16.1575 22.805 18.5425 22.9625C18.715 22.985 18.8875 23 19.075 23H24.925C27.7 23 29.1625 21.68 29.305 19.055C29.3125 18.9125 29.32 18.7625 29.32 18.6125V17.15C29.32 15.4925 28.2175 14.0975 26.7175 13.64ZM23.875 18.6425H22.5625V20C22.5625 20.3075 22.3075 20.5625 22 20.5625C21.6925 20.5625 21.4375 20.3075 21.4375 20V18.6425H20.125C19.8175 18.6425 19.5625 18.395 19.5625 18.08C19.5625 17.7725 19.8175 17.5175 20.125 17.5175H21.4375V16.25C21.4375 15.9425 21.6925 15.6875 22 15.6875C22.3075 15.6875 22.5625 15.9425 22.5625 16.25V17.5175H23.875C24.1825 17.5175 24.4375 17.7725 24.4375 18.08C24.4375 18.395 24.1825 18.6425 23.875 18.6425Z" fill="#AAAAAA"/>
<path d="M40.1953 21.2734C37.5938 21.2734 36.0312 19 36.0312 15.3672V15.3516C36.0312 11.7188 37.5938 9.45312 40.1953 9.45312C42.7891 9.45312 44.3594 11.7188 44.3594 15.3516V15.3672C44.3594 19 42.7891 21.2734 40.1953 21.2734ZM40.1953 19.8203C41.7031 19.8203 42.5938 18.125 42.5938 15.3672V15.3516C42.5938 12.5938 41.7031 10.9141 40.1953 10.9141C38.6797 10.9141 37.7969 12.5938 37.7969 15.3516V15.3672C37.7969 18.125 38.6797 19.8203 40.1953 19.8203ZM45.8281 21L48.6484 16.7734L45.8047 12.5156H47.7656L49.5938 15.5469H49.7266L51.5391 12.5156H53.4141L50.6094 16.7031L53.4453 21H51.5156L49.6562 17.9375H49.5312L47.6719 21H45.8281ZM59.7109 21.1406C58.5234 21.1406 57.5938 20.5938 57.1016 19.6641H56.9766V21H55.2812V9.1875H56.9766V13.8594H57.1016C57.5547 12.9453 58.5469 12.3672 59.7109 12.3672C61.8672 12.3672 63.2266 14.0625 63.2266 16.75V16.7656C63.2266 19.4297 61.8516 21.1406 59.7109 21.1406ZM59.2344 19.6953C60.6484 19.6953 61.5 18.5859 61.5 16.7656V16.75C61.5 14.9297 60.6484 13.8203 59.2344 13.8203C57.8203 13.8203 56.9453 14.9375 56.9453 16.75V16.7656C56.9453 18.5781 57.8203 19.6953 59.2344 19.6953ZM67.6172 21V11.5312H67.4844L64.6484 13.5547V11.8359L67.6172 9.72656H69.3672V21H67.6172ZM73.4609 21.1172C72.8125 21.1172 72.3125 20.6172 72.3125 19.9844C72.3125 19.3438 72.8125 18.8438 73.4609 18.8438C74.1094 18.8438 74.6016 19.3438 74.6016 19.9844C74.6016 20.6172 74.1094 21.1172 73.4609 21.1172ZM78.5078 21.1172C77.8594 21.1172 77.3594 20.6172 77.3594 19.9844C77.3594 19.3438 77.8594 18.8438 78.5078 18.8438C79.1562 18.8438 79.6484 19.3438 79.6484 19.9844C79.6484 20.6172 79.1562 21.1172 78.5078 21.1172ZM83.5547 21.1172C82.9062 21.1172 82.4062 20.6172 82.4062 19.9844C82.4062 19.3438 82.9062 18.8438 83.5547 18.8438C84.2031 18.8438 84.6953 19.3438 84.6953 19.9844C84.6953 20.6172 84.2031 21.1172 83.5547 21.1172ZM88.6016 21.1172C87.9531 21.1172 87.4531 20.6172 87.4531 19.9844C87.4531 19.3438 87.9531 18.8438 88.6016 18.8438C89.25 18.8438 89.7422 19.3438 89.7422 19.9844C89.7422 20.6172 89.25 21.1172 88.6016 21.1172ZM95.75 21.2734C93.5312 21.2734 92 19.8906 91.8438 18.0625L91.8359 17.9609H93.4766L93.4844 18.0234C93.6328 19.0156 94.5312 19.8047 95.7656 19.8047C97.1562 19.8047 98.125 18.8125 98.125 17.3984V17.3828C98.125 15.9922 97.1406 15.0078 95.7812 15.0078C95.0938 15.0078 94.5078 15.2109 94.0625 15.6172C93.8594 15.7969 93.6797 16.0156 93.5469 16.2734H92.0391L92.6016 9.72656H99.1562V11.2109H93.9766L93.6328 14.8047H93.7656C94.2422 14.0469 95.125 13.6094 96.1641 13.6094C98.2812 13.6094 99.7969 15.1875 99.7969 17.3516V17.3672C99.7969 19.6797 98.125 21.2734 95.75 21.2734ZM106.164 21.2734C103.898 21.2734 101.773 19.6797 101.773 15.5312V15.5156C101.773 11.7031 103.438 9.45312 106.227 9.45312C108.219 9.45312 109.703 10.625 110.078 12.3281L110.094 12.4219H108.359L108.328 12.3438C108.016 11.4844 107.281 10.9375 106.219 10.9375C104.32 10.9375 103.531 12.7891 103.445 15.0391C103.438 15.125 103.438 15.2109 103.438 15.2969H103.586C104 14.3906 105.016 13.5859 106.555 13.5859C108.703 13.5859 110.242 15.1797 110.242 17.3359V17.3516C110.242 19.6172 108.531 21.2734 106.164 21.2734ZM103.781 17.3516C103.781 18.7266 104.82 19.8047 106.148 19.8047C107.469 19.8047 108.516 18.75 108.516 17.3984V17.3828C108.516 16 107.531 15 106.164 15C104.812 15 103.781 15.9844 103.781 17.3438V17.3516ZM112.945 21L117.914 11.3281V11.2031H112.008V9.72656H119.688V11.2422L114.781 21H112.945ZM125.609 21.2109C123.109 21.2109 121.344 19.8672 121.344 17.9531V17.9375C121.344 16.5156 122.367 15.3828 123.844 15.0625V15.0234C122.578 14.6641 121.75 13.7188 121.75 12.5234V12.5078C121.75 10.7812 123.367 9.51562 125.609 9.51562C127.859 9.51562 129.469 10.7812 129.469 12.5078V12.5234C129.469 13.7188 128.648 14.6641 127.383 15.0234V15.0625C128.859 15.3828 129.883 16.5156 129.883 17.9375V17.9531C129.883 19.8672 128.117 21.2109 125.609 21.2109ZM125.609 14.4375C126.875 14.4375 127.734 13.7031 127.734 12.6719V12.6562C127.734 11.625 126.867 10.9062 125.609 10.9062C124.352 10.9062 123.484 11.625 123.484 12.6562V12.6719C123.484 13.7031 124.352 14.4375 125.609 14.4375ZM125.609 19.8047C127.055 19.8047 128.078 18.9844 128.078 17.8438V17.8281C128.078 16.6719 127.062 15.8359 125.609 15.8359C124.164 15.8359 123.148 16.6719 123.148 17.8281V17.8438C123.148 18.9844 124.172 19.8047 125.609 19.8047Z" fill="#121212"/>
</g>
<defs>
<filter id="filter0_d_733_5659" x="0" y="0" width="144" height="33" filterUnits="userSpaceOnUse" color-interpolation-filters="sRGB">
<feFlood flood-opacity="0" result="BackgroundImageFix"/>
<feColorMatrix in="SourceAlpha" type="matrix" values="0 0 0 0 0 0 0 0 0 0 0 0 0 0 0 0 0 0 127 0" result="hardAlpha"/>
<feOffset dy="1"/>
<feGaussianBlur stdDeviation="0.5"/>
<feComposite in2="hardAlpha" operator="out"/>
<feColorMatrix type="matrix" values="0 0 0 0 0 0 0 0 0 0 0 0 0 0 0 0 0 0 0.05 0"/>
<feBlend mode="normal" in2="BackgroundImageFix" result="effect1_dropShadow_733_5659"/>
<feBlend mode="normal" in="SourceGraphic" in2="effect1_dropShadow_733_5659" result="shape"/>
</filter>
<linearGradient id="paint0_linear_733_5659" x1="1" y1="0" x2="143" y2="31" gradientUnits="userSpaceOnUse">
<stop stop-color="#439EFF"/>
<stop offset="1" stop-color="#7177F9"/>
</linearGradient>
</defs>
</svg>
