<svg width="14" height="14" viewBox="0 0 14 14" fill="none" xmlns="http://www.w3.org/2000/svg">
<path d="M6.97624 0.333374C3.3029 0.333374 0.30957 3.32671 0.30957 7.00004C0.30957 10.6734 3.3029 13.6667 6.97624 13.6667C10.6496 13.6667 13.6429 10.6734 13.6429 7.00004C13.6429 3.32671 10.6496 0.333374 6.97624 0.333374ZM4.30957 7.66671C3.93624 7.66671 3.6429 7.36671 3.6429 7.00004C3.6429 6.63337 3.9429 6.33337 4.30957 6.33337C4.67624 6.33337 4.97624 6.63337 4.97624 7.00004C4.97624 7.36671 4.6829 7.66671 4.30957 7.66671ZM6.97624 7.66671C6.6029 7.66671 6.30957 7.36671 6.30957 7.00004C6.30957 6.63337 6.60957 6.33337 6.97624 6.33337C7.3429 6.33337 7.6429 6.63337 7.6429 7.00004C7.6429 7.36671 7.34957 7.66671 6.97624 7.66671ZM9.6429 7.66671C9.26957 7.66671 8.97624 7.36671 8.97624 7.00004C8.97624 6.63337 9.27624 6.33337 9.6429 6.33337C10.0096 6.33337 10.3096 6.63337 10.3096 7.00004C10.3096 7.36671 10.0162 7.66671 9.6429 7.66671Z" fill="#E0C600"/>
</svg>
