<svg width="13" height="12" viewBox="0 0 13 12" fill="none" xmlns="http://www.w3.org/2000/svg">
<path d="M6.02344 1C8.78344 1 11.0234 3.24 11.0234 6C11.0234 8.76 8.78344 11 6.02344 11C3.26344 11 1.02344 8.76 1.02344 6C1.02344 3.24 3.26344 1 6.02344 1ZM3.25844 3.765L7.11844 7.625H5.60844C5.40344 7.625 5.23344 7.795 5.23344 8C5.23344 8.205 5.40344 8.375 5.60844 8.375H8.02344C8.22844 8.375 8.39844 8.205 8.39844 8V5.585C8.39844 5.38 8.22844 5.21 8.02344 5.21C7.81844 5.21 7.64844 5.38 7.64844 5.585V7.095L3.78844 3.235C3.71344 3.16 3.61844 3.125 3.52344 3.125C3.42844 3.125 3.33344 3.16 3.25844 3.235C3.11344 3.38 3.11344 3.62 3.25844 3.765Z" fill="#636363"/>
</svg>
