<svg width="219" height="53" viewBox="0 0 219 53" fill="none" xmlns="http://www.w3.org/2000/svg">
<rect x="0.448478" y="1.28039" width="218.103" height="51.1265" rx="14.5632" fill="#FFFFFD"/>
<rect x="0.448478" y="1.28039" width="218.103" height="51.1265" rx="14.5632" fill="url(#paint0_linear_733_5715)" fill-opacity="0.24"/>
<rect x="0.448478" y="1.28039" width="218.103" height="51.1265" rx="14.5632" stroke="#ECEEF0" stroke-width="0.873518"/>
<circle cx="31.988" cy="26.8867" r="18" fill="url(#paint1_linear_733_5715)"/>
<rect x="56.0119" y="8.80054" width="99" height="12" rx="6" fill="#F2F2F2"/>
<rect x="56.0119" y="30.8435" width="149" height="12" rx="6" fill="#F2F2F2"/>
<path d="M40.1333 30.2666L34.8 20.6666C34.0833 19.375 33.0916 18.6666 32 18.6666C30.9083 18.6666 29.9166 19.375 29.2 20.6666L23.8666 30.2666C23.1916 31.4916 23.1166 32.6666 23.6583 33.5916C24.2 34.5166 25.2666 35.025 26.6666 35.025H37.3333C38.7333 35.025 39.8 34.5166 40.3416 33.5916C40.8833 32.6666 40.8083 31.4833 40.1333 30.2666ZM31.375 24.5C31.375 24.1583 31.6583 23.875 32 23.875C32.3416 23.875 32.625 24.1583 32.625 24.5V28.6666C32.625 29.0083 32.3416 29.2916 32 29.2916C31.6583 29.2916 31.375 29.0083 31.375 28.6666V24.5ZM32.5916 31.7583C32.55 31.7916 32.5083 31.825 32.4666 31.8583C32.4166 31.8916 32.3666 31.9166 32.3166 31.9333C32.2666 31.9583 32.2166 31.975 32.1583 31.9833C32.1083 31.9916 32.05 32 32 32C31.95 32 31.8916 31.9916 31.8333 31.9833C31.7833 31.975 31.7333 31.9583 31.6833 31.9333C31.6333 31.9166 31.5833 31.8916 31.5333 31.8583C31.4916 31.825 31.45 31.7916 31.4083 31.7583C31.2583 31.6 31.1666 31.3833 31.1666 31.1666C31.1666 30.95 31.2583 30.7333 31.4083 30.575C31.45 30.5416 31.4916 30.5083 31.5333 30.475C31.5833 30.4416 31.6333 30.4166 31.6833 30.4C31.7333 30.375 31.7833 30.3583 31.8333 30.35C31.9416 30.325 32.0583 30.325 32.1583 30.35C32.2166 30.3583 32.2666 30.375 32.3166 30.4C32.3666 30.4166 32.4166 30.4416 32.4666 30.475C32.5083 30.5083 32.55 30.5416 32.5916 30.575C32.7416 30.7333 32.8333 30.95 32.8333 31.1666C32.8333 31.3833 32.7416 31.6 32.5916 31.7583Z" fill="white"/>
<defs>
<linearGradient id="paint0_linear_733_5715" x1="109.5" y1="0.843628" x2="109.5" y2="52.8436" gradientUnits="userSpaceOnUse">
<stop stop-color="#E9E9E9"/>
<stop offset="1" stop-color="white" stop-opacity="0"/>
</linearGradient>
<linearGradient id="paint1_linear_733_5715" x1="14.0002" y1="8.99994" x2="50.0002" y2="44.9999" gradientUnits="userSpaceOnUse">
<stop stop-color="#F2F2F2"/>
<stop offset="1" stop-color="#CFCFCF"/>
</linearGradient>
</defs>
</svg>
