<svg width="18" height="18" viewBox="0 0 18 18" fill="none" xmlns="http://www.w3.org/2000/svg">
<path d="M14.625 5.62491L13.5075 6.74241L11.2575 4.49241L12.375 3.37491C12.69 3.05991 13.095 2.90991 13.5 2.90991C13.905 2.90991 14.31 3.05991 14.625 3.37491C15.2475 3.99741 15.2475 5.00241 14.625 5.62491Z" fill="#B2B2B2"/>
<path d="M12.9825 7.2749L4.87502 15.3749C4.25252 15.9974 3.24752 15.9974 2.62502 15.3749C2.00252 14.7524 2.00252 13.7474 2.62502 13.1249L10.7325 5.0249L12.9825 7.2749Z" fill="#B2B2B2"/>
<path d="M7.46251 2.62489L7.77001 1.58239C7.80001 1.48489 7.77001 1.37989 7.70251 1.30489C7.63501 1.22989 7.51501 1.19989 7.41751 1.22989L6.37501 1.53739L5.33251 1.22989C5.23501 1.19989 5.13001 1.22989 5.05501 1.29739C4.98001 1.37239 4.95751 1.47739 4.98751 1.57489L5.28751 2.62489L4.98001 3.66739C4.95001 3.76489 4.98001 3.86989 5.04751 3.94489C5.12251 4.01989 5.22751 4.04239 5.32501 4.01239L6.37501 3.71239L7.41751 4.01989C7.44751 4.02739 7.47001 4.03489 7.50001 4.03489C7.57501 4.03489 7.64251 4.00489 7.70251 3.95239C7.77751 3.87739 7.80001 3.77239 7.77001 3.67489L7.46251 2.62489Z" fill="#B2B2B2"/>
<path d="M4.46251 7.12489L4.77001 6.08239C4.80001 5.98489 4.77001 5.87989 4.70251 5.80489C4.62751 5.72989 4.52251 5.70739 4.42501 5.73739L3.37501 6.03739L2.33251 5.72989C2.23501 5.69989 2.13001 5.72989 2.05501 5.79739C1.98001 5.87239 1.95751 5.97739 1.98751 6.07489L2.28751 7.12489L1.98001 8.16739C1.95001 8.26489 1.98001 8.36989 2.04751 8.44489C2.12251 8.51989 2.22751 8.54239 2.32501 8.51239L3.36751 8.20489L4.41001 8.51239C4.43251 8.51989 4.46251 8.51989 4.49251 8.51989C4.56751 8.51989 4.63501 8.48989 4.69501 8.43739C4.77001 8.36239 4.79251 8.25739 4.76251 8.15989L4.46251 7.12489Z" fill="#B2B2B2"/>
<path d="M15.7125 10.875L16.02 9.83247C16.05 9.73497 16.02 9.62997 15.9525 9.55497C15.8775 9.47997 15.7725 9.45747 15.675 9.48747L14.6325 9.79497L13.59 9.48747C13.4925 9.45747 13.3875 9.48747 13.3125 9.55497C13.2375 9.62997 13.215 9.73497 13.245 9.83247L13.5525 10.875L13.245 11.9175C13.215 12.015 13.245 12.12 13.3125 12.195C13.3875 12.27 13.4925 12.2925 13.59 12.2625L14.6325 11.955L15.675 12.2625C15.6975 12.27 15.7275 12.27 15.7575 12.27C15.8325 12.27 15.9 12.24 15.96 12.1875C16.035 12.1125 16.0575 12.0075 16.0275 11.91L15.7125 10.875Z" fill="#B2B2B2"/>
</svg>
