<svg width="17" height="16" viewBox="0 0 17 16" fill="none" xmlns="http://www.w3.org/2000/svg">
<path d="M8.97624 1.33337C5.3029 1.33337 2.30957 4.32671 2.30957 8.00004C2.30957 11.6734 5.3029 14.6667 8.97624 14.6667C12.6496 14.6667 15.6429 11.6734 15.6429 8.00004C15.6429 4.32671 12.6496 1.33337 8.97624 1.33337ZM12.1629 6.46671L8.3829 10.2467C8.28957 10.34 8.1629 10.3934 8.02957 10.3934C7.89624 10.3934 7.76957 10.34 7.67624 10.2467L5.78957 8.36004C5.59624 8.16671 5.59624 7.84671 5.78957 7.65337C5.9829 7.46004 6.3029 7.46004 6.49624 7.65337L8.02957 9.18671L11.4562 5.76004C11.6496 5.56671 11.9696 5.56671 12.1629 5.76004C12.3562 5.95337 12.3562 6.26671 12.1629 6.46671Z" fill="#00903C"/>
</svg>
