<svg width="18" height="18" viewBox="0 0 18 18" fill="none" xmlns="http://www.w3.org/2000/svg">
<path d="M15.75 4.48511C13.2525 4.23761 10.74 4.11011 8.235 4.11011C6.75 4.11011 5.265 4.18511 3.78 4.33511L2.25 4.48511" stroke="url(#paint0_linear_1309_5648)" stroke-width="1.5" stroke-linecap="round" stroke-linejoin="round"/>
<path d="M6.375 3.7275L6.54 2.745C6.66 2.0325 6.75 1.5 8.0175 1.5H9.9825C11.25 1.5 11.3475 2.0625 11.46 2.7525L11.625 3.7275" stroke="url(#paint1_linear_1309_5648)" stroke-width="1.5" stroke-linecap="round" stroke-linejoin="round"/>
<path d="M14.1375 6.85498L13.65 14.4075C13.5675 15.585 13.5 16.5 11.4075 16.5H6.59255C4.50005 16.5 4.43255 15.585 4.35005 14.4075L3.86255 6.85498" stroke="url(#paint2_linear_1309_5648)" stroke-width="1.5" stroke-linecap="round" stroke-linejoin="round"/>
<path d="M7.74756 12.375H10.2451" stroke="url(#paint3_linear_1309_5648)" stroke-width="1.5" stroke-linecap="round" stroke-linejoin="round"/>
<path d="M7.125 9.375H10.875" stroke="url(#paint4_linear_1309_5648)" stroke-width="1.5" stroke-linecap="round" stroke-linejoin="round"/>
<defs>
<linearGradient id="paint0_linear_1309_5648" x1="2.25" y1="4.29761" x2="15.75" y2="4.29761" gradientUnits="userSpaceOnUse">
<stop stop-color="#4BA2FF"/>
<stop offset="1" stop-color="#6A6BF7"/>
</linearGradient>
<linearGradient id="paint1_linear_1309_5648" x1="6.375" y1="2.61375" x2="11.625" y2="2.61375" gradientUnits="userSpaceOnUse">
<stop stop-color="#4BA2FF"/>
<stop offset="1" stop-color="#6A6BF7"/>
</linearGradient>
<linearGradient id="paint2_linear_1309_5648" x1="3.86255" y1="11.6775" x2="14.1375" y2="11.6775" gradientUnits="userSpaceOnUse">
<stop stop-color="#4BA2FF"/>
<stop offset="1" stop-color="#6A6BF7"/>
</linearGradient>
<linearGradient id="paint3_linear_1309_5648" x1="7.74756" y1="12.875" x2="10.2451" y2="12.875" gradientUnits="userSpaceOnUse">
<stop stop-color="#4BA2FF"/>
<stop offset="1" stop-color="#6A6BF7"/>
</linearGradient>
<linearGradient id="paint4_linear_1309_5648" x1="7.125" y1="9.875" x2="10.875" y2="9.875" gradientUnits="userSpaceOnUse">
<stop stop-color="#4BA2FF"/>
<stop offset="1" stop-color="#6A6BF7"/>
</linearGradient>
</defs>
</svg>
