<svg width="22" height="23" viewBox="0 0 22 23" fill="none" xmlns="http://www.w3.org/2000/svg">
<g clip-path="url(#clip0_733_5755)">
<path d="M11 22.1519C17.0959 22.1519 22 17.2477 22 11.1519C22 5.05599 17.0959 0.151855 11 0.151855C4.90413 0.151855 0 5.05599 0 11.1519C0 17.2477 4.90413 22.1519 11 22.1519Z" fill="#2775CA"/>
<path d="M14.0251 12.8934C14.0251 11.2893 13.0626 10.7393 11.1376 10.5101C9.76255 10.3268 9.48755 9.96015 9.48755 9.31841C9.48755 8.67667 9.94592 8.26428 10.8626 8.26428C11.6876 8.26428 12.1459 8.53928 12.3751 9.22678C12.4209 9.36428 12.5584 9.45591 12.6959 9.45591H13.4292C13.6126 9.45591 13.7501 9.31841 13.7501 9.13515V9.08928C13.5667 8.08091 12.7417 7.30178 11.6876 7.21015V6.11015C11.6876 5.92678 11.5501 5.78928 11.3209 5.74341H10.6334C10.4501 5.74341 10.3126 5.88091 10.2667 6.11015V7.16428C8.89168 7.34765 8.02092 8.26428 8.02092 9.41015C8.02092 10.9226 8.93755 11.5184 10.8626 11.7476C12.1459 11.9768 12.5584 12.2518 12.5584 12.9851C12.5584 13.7185 11.9167 14.2226 11.0459 14.2226C9.85418 14.2226 9.44168 13.7184 9.30418 13.0309C9.25842 12.8476 9.12092 12.7559 8.98342 12.7559H8.20418C8.02092 12.7559 7.88342 12.8934 7.88342 13.0768V13.1226C8.06668 14.2684 8.80005 15.0934 10.3126 15.3226V16.4226C10.3126 16.6059 10.4501 16.7434 10.6792 16.7893H11.3667C11.5501 16.7893 11.6876 16.6518 11.7334 16.4226V15.3226C13.1084 15.0934 14.0251 14.1309 14.0251 12.8934Z" fill="white"/>
<path d="M8.6626 17.7059C5.0876 16.4226 3.25423 12.4351 4.58347 8.90587C5.27097 6.98087 6.78347 5.51424 8.6626 4.82674C8.84597 4.73511 8.9376 4.59761 8.9376 4.36837V3.72674C8.9376 3.54337 8.84597 3.40587 8.6626 3.36011C8.61673 3.36011 8.5251 3.36011 8.47923 3.40587C4.1251 4.78087 1.74173 9.41011 3.11673 13.7642C3.94173 16.3309 5.9126 18.3017 8.47923 19.1267C8.6626 19.2184 8.84597 19.1267 8.89173 18.9434C8.9376 18.8976 8.9376 18.8517 8.9376 18.7601V18.1184C8.9376 17.9809 8.8001 17.7976 8.6626 17.7059ZM13.521 3.40587C13.3376 3.31424 13.1542 3.40587 13.1085 3.58924C13.0626 3.63511 13.0626 3.68087 13.0626 3.77261V4.41424C13.0626 4.59761 13.2001 4.78087 13.3376 4.87261C16.9126 6.15587 18.746 10.1434 17.4167 13.6726C16.7292 15.5976 15.2167 17.0642 13.3376 17.7517C13.1542 17.8434 13.0626 17.9809 13.0626 18.2101V18.8517C13.0626 19.0351 13.1542 19.1726 13.3376 19.2184C13.3835 19.2184 13.4751 19.2184 13.521 19.1726C17.8751 17.7976 20.2585 13.1684 18.8835 8.81424C18.0585 6.20174 16.0417 4.23087 13.521 3.40587Z" fill="white"/>
</g>
<defs>
<clipPath id="clip0_733_5755">
<rect width="22" height="22" fill="white" transform="translate(0 0.151855)"/>
</clipPath>
</defs>
</svg>
