<svg width="24" height="24" viewBox="0 0 24 24" fill="none" xmlns="http://www.w3.org/2000/svg">
<rect x="1" y="1" width="22" height="22" rx="5" stroke="#B7B7B7" stroke-width="2"/>
<path d="M6.74575 4.61545H17.0653V19.3847H15.5505V12.6194H15.5356C15.3682 10.7497 13.8069 9.28443 11.9055 9.28443C10.0041 9.28443 8.44281 10.7497 8.2754 12.6194H8.26054V19.3847H6.74575V4.61545Z" fill="#B7B7B7"/>
<path d="M4.00018 6.71173L4.61557 8.808H5.13628V17.2884C4.87484 17.2884 4.6629 17.5017 4.6629 17.7648V18.3365H4.56823C4.30679 18.3365 4.09486 18.5498 4.09486 18.813V19.3847H9.39663V18.813C9.39663 18.5498 9.1847 18.3365 8.92326 18.3365H8.82859V17.7648C8.82859 17.5017 8.61665 17.2884 8.35521 17.2884H7.78717V6.71173H4.00018Z" fill="#B7B7B7"/>
<path d="M15.6452 17.2884C15.3837 17.2884 15.1718 17.5017 15.1718 17.7648V18.3365H15.0771C14.8157 18.3365 14.6037 18.5498 14.6037 18.813V19.3847H19.9055V18.813C19.9055 18.5498 19.6936 18.3365 19.4321 18.3365H19.3375V17.7648C19.3375 17.5017 19.1255 17.2884 18.8641 17.2884V8.808H19.3848L20.0002 6.71173H16.2132V17.2884H15.6452Z" fill="#B7B7B7"/>
</svg>
