<svg width="18" height="19" viewBox="0 0 18 19" fill="none" xmlns="http://www.w3.org/2000/svg">
<path d="M8.95502 2.1575L7.14752 6.365H5.34002C5.04002 6.365 4.74752 6.3875 4.46252 6.44749L5.21252 4.6475L5.24252 4.58L5.28752 4.46C5.31002 4.4075 5.32502 4.3625 5.34752 4.325C6.21752 2.3075 7.19252 1.6775 8.95502 2.1575Z" fill="#AAAAAA"/>
<path d="M14.0475 6.56751L14.0325 6.56001C13.5825 6.43251 13.125 6.36501 12.66 6.36501H7.96503L9.65253 2.44251L9.67503 2.39001C9.78003 2.42751 9.89253 2.48001 10.005 2.51751L11.6625 3.21501C12.585 3.59751 13.23 3.99501 13.6275 4.47501C13.695 4.56501 13.755 4.64751 13.815 4.74501C13.8825 4.85001 13.935 4.95501 13.965 5.06751C13.995 5.13501 14.0175 5.19501 14.0325 5.26251C14.145 5.64501 14.1525 6.08001 14.0475 6.56751Z" fill="#AAAAAA"/>
<path d="M13.7175 7.63999C13.38 7.54249 13.0275 7.48999 12.66 7.48999H5.33999C4.82999 7.48999 4.34999 7.58749 3.89999 7.78249C2.59499 8.34499 1.67999 9.64249 1.67999 11.15V12.6125C1.67999 12.7925 1.69499 12.965 1.71749 13.145C1.88249 15.53 3.15749 16.805 5.54249 16.9625C5.71499 16.985 5.88749 17 6.07499 17H11.925C14.7 17 16.1625 15.68 16.305 13.055C16.3125 12.9125 16.32 12.7625 16.32 12.6125V11.15C16.32 9.49249 15.2175 8.09749 13.7175 7.63999ZM10.875 12.6425H9.56249V14C9.56249 14.3075 9.30749 14.5625 8.99999 14.5625C8.69249 14.5625 8.43749 14.3075 8.43749 14V12.6425H7.12499C6.81749 12.6425 6.56249 12.395 6.56249 12.08C6.56249 11.7725 6.81749 11.5175 7.12499 11.5175H8.43749V10.25C8.43749 9.94249 8.69249 9.68749 8.99999 9.68749C9.30749 9.68749 9.56249 9.94249 9.56249 10.25V11.5175H10.875C11.1825 11.5175 11.4375 11.7725 11.4375 12.08C11.4375 12.395 11.1825 12.6425 10.875 12.6425Z" fill="#AAAAAA"/>
</svg>
