<svg width="24" height="24" viewBox="0 0 24 24" fill="none" xmlns="http://www.w3.org/2000/svg">
<path d="M1.21075 5.54963C1.00212 7.10139 1 9.14332 1 12C1 14.8567 1.00212 16.8986 1.21075 18.4504C1.41551 19.9734 1.80256 20.8737 2.46448 21.5356C3.12639 22.1975 4.02664 22.5845 5.54962 22.7893C7.10138 22.9979 9.1433 23 12 23C14.8567 23 16.8986 22.9979 18.4504 22.7893C19.9734 22.5845 20.8736 22.1975 21.5356 21.5356C21.5356 21.5356 21.5356 21.5356 21.5356 21.5356M1.21075 5.54963L22.2427 1.75736C24 3.51473 24 6.34316 24 12C24 17.6568 24 20.4853 22.2427 22.2427L21.5356 21.5356M1.21075 5.54963C1.41551 4.02663 1.80256 3.12638 2.46447 2.46446C3.12638 1.80255 4.02663 1.41551 5.54962 1.21075C7.10138 1.00212 9.1433 1 12 1C14.8567 1 16.8986 1.00212 18.4504 1.21075C19.9734 1.41551 20.8736 1.80255 21.5356 2.46448M1.21075 5.54963L21.5356 2.46448M21.5356 21.5356C22.1975 20.8736 22.5845 19.9734 22.7893 18.4504C22.9979 16.8986 23 14.8567 23 12C23 9.14332 22.9979 7.10139 22.7893 5.54962C22.5845 4.02664 22.1975 3.12639 21.5356 2.46448M21.5356 21.5356L21.5356 2.46448" stroke="#B7B7B7" stroke-width="2" stroke-linecap="round" stroke-linejoin="round"/>
<path d="M5.6842 18.3158L10.9814 13.0187M10.9814 13.0187L5.6842 5.6842H9.19298L13.0187 10.9813M10.9814 13.0187L14.807 18.3158H18.3158L13.0187 10.9813M18.3158 5.6842L13.0187 10.9813" stroke="#B7B7B7" stroke-width="2" stroke-linecap="round" stroke-linejoin="round"/>
</svg>
