<svg width="36" height="37" viewBox="0 0 36 37" fill="none" xmlns="http://www.w3.org/2000/svg">
<circle cx="18" cy="18.5" r="17.5" fill="#F1F1F1" stroke="#E0E0E0"/>
<path d="M31 1.33325C28.7 1.33325 26.8333 3.19992 26.8333 5.49992C26.8333 7.79992 28.7 9.66658 31 9.66658C33.3 9.66658 35.1667 7.79992 35.1667 5.49992C35.1667 3.19992 33.3 1.33325 31 1.33325ZM33.3042 3.63742L30.0875 6.85408H31.3458C31.5167 6.85408 31.6583 6.99575 31.6583 7.16658C31.6583 7.33742 31.5167 7.47908 31.3458 7.47908H29.3333C29.1625 7.47908 29.0208 7.33742 29.0208 7.16658V5.15409C29.0208 4.98325 29.1625 4.84159 29.3333 4.84159C29.5042 4.84159 29.6458 4.98325 29.6458 5.15409V6.41242L32.8625 3.19575C32.925 3.13325 33.0042 3.10409 33.0833 3.10409C33.1625 3.10409 33.2417 3.13325 33.3042 3.19575C33.425 3.31659 33.425 3.51659 33.3042 3.63742Z" fill="#00C351"/>
</svg>
