<svg width="104" height="104" viewBox="0 0 104 104" fill="none" xmlns="http://www.w3.org/2000/svg">
<path d="M75.4491 59.3674C73.5824 53.323 71.0491 47.5363 67.8491 42.0163C65.6536 38.2296 63.1914 34.6563 60.4625 31.2874C59.2181 29.7319 57.9113 28.2295 56.5513 26.7718C52.2313 22.1318 47.6003 18.3895 42.6847 15.5451C41.3959 14.8073 40.1247 14.1407 38.8714 13.5719C35.3514 11.9541 32.0002 11.0207 28.8091 10.754C28.7736 10.754 28.7382 10.7452 28.7026 10.7452C25.1382 10.4696 21.9646 10.923 19.1735 12.1319L17.5203 12.9585C14.3203 14.7807 11.778 17.634 9.91135 21.5273C8.04468 25.4118 7.11133 30.1763 7.11133 35.8296C7.11133 41.483 8.04468 47.3141 9.91135 53.3585C11.778 59.403 14.3203 65.1896 17.5203 70.7096C20.7203 76.2296 24.4802 81.3141 28.8091 85.9541C33.138 90.5937 37.7603 94.3359 42.6847 97.1804C47.6003 100.016 52.2313 101.616 56.5513 101.971C60.8802 102.327 64.6491 101.598 67.8491 99.7671C70.5069 98.2559 72.7025 96.0337 74.4359 93.0915C74.7914 92.4959 75.1291 91.8559 75.4491 91.1982C77.3158 87.314 78.2493 82.5496 78.2493 76.8963C78.2493 71.243 77.3158 65.4118 75.4491 59.3674ZM42.6847 56.363L39.7425 58.0341L34.7647 60.8784L22.4979 67.874C19.8312 63.2695 17.7869 58.5496 16.3647 53.7141C14.9424 48.8785 14.2314 44.2919 14.2314 39.9363C14.2314 30.8163 16.9868 24.6918 22.4979 21.5451C23.4223 21.0118 24.3912 20.5941 25.3868 20.2919C27.9824 19.4741 30.8091 19.4118 33.8758 20.0962C36.6224 20.7007 39.5559 21.9096 42.6847 23.7141V56.363Z" fill="#E0C600" stroke="black" stroke-width="0.205128" stroke-linecap="round" stroke-linejoin="round"/>
<path d="M39.7415 58.0342L34.7636 60.8786L22.497 67.8742C19.8303 63.2697 17.7859 58.5497 16.3637 53.7142C14.9415 48.8786 14.2305 44.292 14.2305 39.9364C14.2305 30.8164 16.9858 24.692 22.497 21.5453C23.4214 21.012 24.3903 20.5942 25.3858 20.292C27.9814 19.4742 30.8081 19.412 33.8747 20.0964C32.6303 23.0742 32.0082 26.7275 32.0082 31.0475C32.0082 35.3675 32.7193 39.9897 34.1415 44.8253C35.4659 49.332 37.3326 53.732 39.7415 58.0342Z" fill="#FFF4A1" stroke="black" stroke-width="0.205128" stroke-linecap="round" stroke-linejoin="round"/>
<path d="M96.0278 68.0074C96.0278 73.6608 95.0936 78.4252 93.2273 82.3096C91.3606 86.203 88.8272 89.056 85.6272 90.8783L83.974 91.7049L67.8494 99.7672C70.5072 98.2561 72.7029 96.0338 74.4362 93.0916C74.7918 92.496 75.1295 91.856 75.4495 91.1983C77.3161 87.3141 78.2496 82.5497 78.2496 76.8963C78.2496 71.243 77.3161 65.4119 75.4495 59.3674C73.5828 53.323 71.0494 47.5363 67.8494 42.0163C65.6538 38.2296 63.1918 34.6564 60.4629 31.2875C59.2184 29.732 57.9117 28.2297 56.5517 26.7719C52.2317 22.1319 47.6007 18.3897 42.6851 15.5452C41.3962 14.8074 40.1251 14.1408 38.8718 13.5719C35.3518 11.9541 32.0006 11.0208 28.8095 10.7541C28.7739 10.7541 28.7385 10.7453 28.7029 10.7453C25.1385 10.4697 21.9649 10.923 19.1738 12.1319L35.2984 4.06971C38.4984 2.2386 42.2584 1.50962 46.5872 1.86518C50.9161 2.22073 55.5384 3.82074 60.4629 6.6563C65.3784 9.50076 70.0095 13.243 74.3295 17.883C78.6584 22.523 82.4272 27.6074 85.6272 33.1274C88.8272 38.6474 91.3606 44.4341 93.2273 50.4785C95.0936 56.523 96.0278 62.363 96.0278 68.0074Z" fill="#FFF4A1" stroke="black" stroke-width="0.205128" stroke-linecap="round" stroke-linejoin="round"/>
</svg>
