<svg width="104" height="104" viewBox="0 0 104 104" fill="none" xmlns="http://www.w3.org/2000/svg">
<path d="M18.3066 13.6446L19.9422 12.8268C19.3822 13.0668 18.84 13.3423 18.3066 13.6446Z" stroke="#229EFF" stroke-width="0.444444" stroke-linecap="round" stroke-linejoin="round"/>
<path d="M75.9243 60.3999C75.8443 60.1333 75.7643 59.8755 75.6843 59.6088C74.6799 56.3644 73.4799 53.191 72.0843 50.0977C70.9199 47.4844 69.6043 44.9333 68.1554 42.4266C67.0177 40.4621 65.8088 38.5599 64.5288 36.711C62.3866 33.6088 60.0399 30.6755 57.4799 27.8933C57.311 27.6977 57.1421 27.511 56.9643 27.3244C52.6799 22.7288 48.1021 19.0221 43.231 16.2044C38.351 13.3955 33.7821 11.8133 29.4977 11.4577H29.4888C25.9243 11.1644 22.7332 11.6177 19.9421 12.8266L18.3066 13.6444C15.1332 15.4488 12.6176 18.2755 10.7688 22.1244C8.91987 25.9821 7.99542 30.7021 7.99542 36.2933C7.99542 41.8844 8.91987 47.671 10.7688 53.6621C12.6176 59.6444 15.1332 65.3777 18.3066 70.8444C21.471 76.311 25.2043 81.351 29.4888 85.9466C33.7732 90.5421 38.351 94.2488 43.231 97.0577C48.1021 99.8755 52.6799 101.458 56.9643 101.813C61.2577 102.16 64.9821 101.431 68.1554 99.6266C70.8043 98.1155 72.9999 95.8755 74.7332 92.9244C75.071 92.3555 75.3821 91.7599 75.6843 91.1377C77.5332 87.2888 78.4577 82.5688 78.4577 76.9777C78.4577 71.3866 77.6132 66.0977 75.9243 60.3999ZM60.8399 70.8444L54.7066 67.3066L46.751 62.711V78.8799L39.7021 74.8088V58.6399L32.1466 54.2755L25.6132 50.5066V42.4177L28.3066 43.9733L33.1155 46.7555L39.7021 50.5599V34.3821L43.391 36.5155L46.751 38.4533V54.6221L47.2043 54.8888L54.2532 58.9599L57.4799 60.8266L60.8399 62.7644V70.8444Z" fill="#0052FF" stroke="black" stroke-width="0.444444" stroke-linecap="round" stroke-linejoin="round"/>
<path d="M60.84 62.7644V70.8444L54.7067 67.3066L46.7512 62.7111L54.2534 58.96L57.48 60.8266L60.84 62.7644Z" fill="#91B4FF" stroke="black" stroke-width="0.444444" stroke-linecap="round" stroke-linejoin="round"/>
<path d="M46.751 71.2889V78.8801L39.7021 74.8089L43.6132 72.8534L46.751 71.2889Z" fill="#91B4FF" stroke="black" stroke-width="0.444444" stroke-linecap="round" stroke-linejoin="round"/>
<path d="M54.2532 58.96L46.751 62.7111V71.2889L43.6132 72.8534L39.7021 74.8089V58.64L47.2043 54.8889L54.2532 58.96Z" fill="#91B4FF" stroke="black" stroke-width="0.444444" stroke-linecap="round" stroke-linejoin="round"/>
<path d="M46.751 38.4534V47.0401L39.7021 50.5601V34.3823L43.391 36.5157L46.751 38.4534Z" fill="#91B4FF" stroke="black" stroke-width="0.444444" stroke-linecap="round" stroke-linejoin="round"/>
<path d="M33.1154 46.7555L29.782 48.4266L25.6132 50.5066V42.4177L28.3065 43.9733L33.1154 46.7555Z" fill="#91B4FF" stroke="black" stroke-width="0.444444" stroke-linecap="round" stroke-linejoin="round"/>
<path d="M47.2043 54.8888L39.7021 58.6399L32.1465 54.2755L25.6132 50.5066L29.782 48.4266L33.1154 46.7555L39.7021 50.5599L46.7509 47.0399V54.6222L47.2043 54.8888Z" fill="#91B4FF" stroke="black" stroke-width="0.444444" stroke-linecap="round" stroke-linejoin="round"/>
<path d="M96.2356 68.0889C96.2356 73.68 95.3111 78.4 93.4621 82.2489C91.6132 86.0978 89.0976 88.9333 85.9332 90.7378L84.4932 91.4578L68.1554 99.6266C70.8043 98.1155 72.9999 95.8755 74.7332 92.9244C75.071 92.3555 75.3821 91.76 75.6843 91.1378C77.5332 87.2889 78.4576 82.5689 78.4576 76.9778C78.4576 71.3866 77.6132 66.0978 75.9243 60.4C75.8443 60.1333 75.7643 59.8755 75.6843 59.6089C74.6799 56.3644 73.4799 53.1911 72.0843 50.0978C70.9199 47.4844 69.6043 44.9333 68.1554 42.4266C67.0176 40.4622 65.8087 38.56 64.5287 36.7111C62.3865 33.6089 60.0399 30.6755 57.4799 27.8933C57.311 27.6978 57.1421 27.5111 56.9643 27.3244C52.6799 22.7289 48.1021 19.0222 43.231 16.2044C38.351 13.3955 33.7821 11.8133 29.4976 11.4578H29.4887C25.9243 11.1644 22.7332 11.6178 19.9421 12.8266L36.0843 4.75554C39.2487 2.94221 42.9821 2.21332 47.2665 2.56888C51.551 2.92443 56.1287 4.50665 61.0087 7.31554C65.8799 10.1333 70.4576 13.84 74.7421 18.4355C79.0354 23.0311 82.7599 28.0622 85.9332 33.5378C89.0976 39.0044 91.6132 44.7289 93.4621 50.72C95.3111 56.7022 96.2356 62.4889 96.2356 68.0889Z" fill="#91B4FF" stroke="black" stroke-width="0.444444" stroke-linecap="round" stroke-linejoin="round"/>
</svg>
